<svg width="395" height="369" viewBox="0 0 395 369" fill="none" xmlns="http://www.w3.org/2000/svg">
<mask id="mask0_155_1117" style="mask-type:alpha" maskUnits="userSpaceOnUse" x="0" y="0" width="395" height="369">
<rect width="395" height="368.732" fill="#C4C4C4"/>
</mask>
<g mask="url(#mask0_155_1117)">
<path d="M394.025 295.273H1.45865C1.45865 295.273 42.0059 241.085 84.4898 234.757C97.6948 232.787 110.627 236.355 119.101 239.663C122.045 240.819 125.258 241.096 128.355 240.461C131.453 239.826 134.303 238.306 136.565 236.082C149.038 223.785 175.244 201.926 203.892 201.926C254.566 201.918 302.245 295.273 394.025 295.273Z" stroke="#98C8DB" stroke-width="5" stroke-linejoin="round"/>
<path d="M42.5643 267.897C43.0925 267.897 43.5206 267.465 43.5206 266.933C43.5206 266.401 43.0925 265.97 42.5643 265.97C42.0362 265.97 41.608 266.401 41.608 266.933C41.608 267.465 42.0362 267.897 42.5643 267.897Z" fill="#98C8DB"/>
<path d="M40.8807 271.89C41.4089 271.89 41.837 271.459 41.837 270.927C41.837 270.395 41.4089 269.964 40.8807 269.964C40.3526 269.964 39.9245 270.395 39.9245 270.927C39.9245 271.459 40.3526 271.89 40.8807 271.89Z" fill="#98C8DB"/>
<path d="M33.8795 278.257C34.4077 278.257 34.8358 277.826 34.8358 277.294C34.8358 276.762 34.4077 276.331 33.8795 276.331C33.3514 276.331 32.9233 276.762 32.9233 277.294C32.9233 277.826 33.3514 278.257 33.8795 278.257Z" fill="#98C8DB"/>
<path d="M39.2113 275.926C39.7395 275.926 40.1676 275.495 40.1676 274.963C40.1676 274.43 39.7395 273.999 39.2113 273.999C38.6832 273.999 38.255 274.43 38.255 274.963C38.255 275.495 38.6832 275.926 39.2113 275.926Z" fill="#98C8DB"/>
<path d="M44.8221 273.718C45.3503 273.718 45.7784 273.286 45.7784 272.754C45.7784 272.222 45.3503 271.791 44.8221 271.791C44.294 271.791 43.8659 272.222 43.8659 272.754C43.8659 273.286 44.294 273.718 44.8221 273.718Z" fill="#98C8DB"/>
<path d="M31.9329 282.17C32.461 282.17 32.8892 281.739 32.8892 281.207C32.8892 280.674 32.461 280.243 31.9329 280.243C31.4048 280.243 30.9766 280.674 30.9766 281.207C30.9766 281.739 31.4048 282.17 31.9329 282.17Z" fill="#98C8DB"/>
<path d="M25.9702 284.091C26.4983 284.091 26.9264 283.659 26.9264 283.127C26.9264 282.595 26.4983 282.164 25.9702 282.164C25.442 282.164 25.0139 282.595 25.0139 283.127C25.0139 283.659 25.442 284.091 25.9702 284.091Z" fill="#98C8DB"/>
<path d="M37.5437 279.962C38.0719 279.962 38.5 279.53 38.5 278.998C38.5 278.466 38.0719 278.035 37.5437 278.035C37.0156 278.035 36.5875 278.466 36.5875 278.998C36.5875 279.53 37.0156 279.962 37.5437 279.962Z" fill="#98C8DB"/>
<path d="M43.1549 277.752C43.6831 277.752 44.1112 277.32 44.1112 276.788C44.1112 276.256 43.6831 275.825 43.1549 275.825C42.6268 275.825 42.1987 276.256 42.1987 276.788C42.1987 277.32 42.6268 277.752 43.1549 277.752Z" fill="#98C8DB"/>
<path d="M9.48847 291.008C10.0166 291.008 10.4447 290.577 10.4447 290.045C10.4447 289.513 10.0166 289.082 9.48847 289.082C8.96033 289.082 8.5322 289.513 8.5322 290.045C8.5322 290.577 8.96033 291.008 9.48847 291.008Z" fill="#98C8DB"/>
<path d="M3.07972 295.24C3.60785 295.24 4.03599 294.809 4.03599 294.277C4.03599 293.745 3.60785 293.314 3.07972 293.314C2.55158 293.314 2.12344 293.745 2.12344 294.277C2.12344 294.809 2.55158 295.24 3.07972 295.24Z" fill="#98C8DB"/>
<path d="M30.2633 286.205C30.7914 286.205 31.2196 285.774 31.2196 285.242C31.2196 284.71 30.7914 284.279 30.2633 284.279C29.7352 284.279 29.307 284.71 29.307 285.242C29.307 285.774 29.7352 286.205 30.2633 286.205Z" fill="#98C8DB"/>
<path d="M35.8744 283.995C36.4025 283.995 36.8307 283.564 36.8307 283.032C36.8307 282.5 36.4025 282.068 35.8744 282.068C35.3463 282.068 34.9181 282.5 34.9181 283.032C34.9181 283.564 35.3463 283.995 35.8744 283.995Z" fill="#98C8DB"/>
<path d="M41.4855 281.787C42.0136 281.787 42.4417 281.356 42.4417 280.824C42.4417 280.292 42.0136 279.86 41.4855 279.86C40.9573 279.86 40.5292 280.292 40.5292 280.824C40.5292 281.356 40.9573 281.787 41.4855 281.787Z" fill="#98C8DB"/>
<path d="M47.0966 279.577C47.6247 279.577 48.0528 279.146 48.0528 278.614C48.0528 278.082 47.6247 277.65 47.0966 277.65C46.5684 277.65 46.1403 278.082 46.1403 278.614C46.1403 279.146 46.5684 279.577 47.0966 279.577Z" fill="#98C8DB"/>
<path d="M7.82093 295.042C8.34906 295.042 8.7772 294.611 8.7772 294.079C8.7772 293.547 8.34906 293.115 7.82093 293.115C7.29279 293.115 6.86465 293.547 6.86465 294.079C6.86465 294.611 7.29279 295.042 7.82093 295.042Z" fill="#98C8DB"/>
<path d="M13.432 292.834C13.9601 292.834 14.3883 292.403 14.3883 291.871C14.3883 291.338 13.9601 290.907 13.432 290.907C12.9039 290.907 12.4757 291.338 12.4757 291.871C12.4757 292.403 12.9039 292.834 13.432 292.834Z" fill="#98C8DB"/>
<path d="M13.1769 287.784C13.705 287.784 14.1332 287.353 14.1332 286.821C14.1332 286.289 13.705 285.857 13.1769 285.857C12.6487 285.857 12.2206 286.289 12.2206 286.821C12.2206 287.353 12.6487 287.784 13.1769 287.784Z" fill="#98C8DB"/>
<path d="M18.0787 290.786C18.6069 290.786 19.035 290.355 19.035 289.822C19.035 289.29 18.6069 288.859 18.0787 288.859C17.5506 288.859 17.1225 289.29 17.1225 289.822C17.1225 290.355 17.5506 290.786 18.0787 290.786Z" fill="#98C8DB"/>
<path d="M24.6523 288.416C25.1804 288.416 25.6085 287.984 25.6085 287.452C25.6085 286.92 25.1804 286.489 24.6523 286.489C24.1241 286.489 23.696 286.92 23.696 287.452C23.696 287.984 24.1241 288.416 24.6523 288.416Z" fill="#98C8DB"/>
<path d="M28.596 290.241C29.1241 290.241 29.5523 289.81 29.5523 289.278C29.5523 288.746 29.1241 288.314 28.596 288.314C28.0679 288.314 27.6397 288.746 27.6397 289.278C27.6397 289.81 28.0679 290.241 28.596 290.241Z" fill="#98C8DB"/>
<path d="M34.207 288.031C34.7351 288.031 35.1632 287.6 35.1632 287.068C35.1632 286.536 34.7351 286.104 34.207 286.104C33.6788 286.104 33.2507 286.536 33.2507 287.068C33.2507 287.6 33.6788 288.031 34.207 288.031Z" fill="#98C8DB"/>
<path d="M39.816 285.823C40.3442 285.823 40.7723 285.392 40.7723 284.86C40.7723 284.327 40.3442 283.896 39.816 283.896C39.2879 283.896 38.8598 284.327 38.8598 284.86C38.8598 285.392 39.2879 285.823 39.816 285.823Z" fill="#98C8DB"/>
<path d="M45.4272 283.613C45.9554 283.613 46.3835 283.182 46.3835 282.649C46.3835 282.117 45.9554 281.686 45.4272 281.686C44.8991 281.686 44.4709 282.117 44.4709 282.649C44.4709 283.182 44.8991 283.613 45.4272 283.613Z" fill="#98C8DB"/>
<path d="M51.0381 281.403C51.5662 281.403 51.9943 280.971 51.9943 280.439C51.9943 279.907 51.5662 279.476 51.0381 279.476C50.5099 279.476 50.0818 279.907 50.0818 280.439C50.0818 280.971 50.5099 281.403 51.0381 281.403Z" fill="#98C8DB"/>
<path d="M56.6493 279.195C57.1774 279.195 57.6055 278.763 57.6055 278.231C57.6055 277.699 57.1774 277.268 56.6493 277.268C56.1211 277.268 55.693 277.699 55.693 278.231C55.693 278.763 56.1211 279.195 56.6493 279.195Z" fill="#98C8DB"/>
<path d="M17.1728 294.66C17.7009 294.66 18.1291 294.228 18.1291 293.696C18.1291 293.164 17.7009 292.733 17.1728 292.733C16.6447 292.733 16.2165 293.164 16.2165 293.696C16.2165 294.228 16.6447 294.66 17.1728 294.66Z" fill="#98C8DB"/>
<path d="M22.0285 292.251C22.5567 292.251 22.9848 291.82 22.9848 291.288C22.9848 290.756 22.5567 290.324 22.0285 290.324C21.5004 290.324 21.0723 290.756 21.0723 291.288C21.0723 291.82 21.5004 292.251 22.0285 292.251Z" fill="#98C8DB"/>
<path d="M22.0285 295.415C22.5567 295.415 22.9848 294.983 22.9848 294.451C22.9848 293.919 22.5567 293.488 22.0285 293.488C21.5004 293.488 21.0723 293.919 21.0723 294.451C21.0723 294.983 21.5004 295.415 22.0285 295.415Z" fill="#98C8DB"/>
<path d="M32.5374 292.067C33.0655 292.067 33.4937 291.636 33.4937 291.103C33.4937 290.571 33.0655 290.14 32.5374 290.14C32.0093 290.14 31.5811 290.571 31.5811 291.103C31.5811 291.636 32.0093 292.067 32.5374 292.067Z" fill="#98C8DB"/>
<path d="M38.1486 289.857C38.6767 289.857 39.1048 289.426 39.1048 288.893C39.1048 288.361 38.6767 287.93 38.1486 287.93C37.6204 287.93 37.1923 288.361 37.1923 288.893C37.1923 289.426 37.6204 289.857 38.1486 289.857Z" fill="#98C8DB"/>
<path d="M43.7596 287.649C44.2877 287.649 44.7158 287.217 44.7158 286.685C44.7158 286.153 44.2877 285.722 43.7596 285.722C43.2314 285.722 42.8033 286.153 42.8033 286.685C42.8033 287.217 43.2314 287.649 43.7596 287.649Z" fill="#98C8DB"/>
<path d="M49.3707 285.438C49.8989 285.438 50.327 285.007 50.327 284.475C50.327 283.943 49.8989 283.512 49.3707 283.512C48.8426 283.512 48.4145 283.943 48.4145 284.475C48.4145 285.007 48.8426 285.438 49.3707 285.438Z" fill="#98C8DB"/>
<path d="M54.9818 283.23C55.51 283.23 55.9381 282.799 55.9381 282.267C55.9381 281.735 55.51 281.303 54.9818 281.303C54.4537 281.303 54.0256 281.735 54.0256 282.267C54.0256 282.799 54.4537 283.23 54.9818 283.23Z" fill="#98C8DB"/>
<path d="M26.9264 294.275C27.4545 294.275 27.8827 293.844 27.8827 293.312C27.8827 292.78 27.4545 292.348 26.9264 292.348C26.3983 292.348 25.9701 292.78 25.9701 293.312C25.9701 293.844 26.3983 294.275 26.9264 294.275Z" fill="#98C8DB"/>
<path d="M30.87 295.293C31.3981 295.293 31.8263 294.862 31.8263 294.33C31.8263 293.797 31.3981 293.366 30.87 293.366C30.3419 293.366 29.9137 293.797 29.9137 294.33C29.9137 294.862 30.3419 295.293 30.87 295.293Z" fill="#98C8DB"/>
<path d="M36.4791 293.892C37.0073 293.892 37.4354 293.461 37.4354 292.929C37.4354 292.397 37.0073 291.966 36.4791 291.966C35.951 291.966 35.5229 292.397 35.5229 292.929C35.5229 293.461 35.951 293.892 36.4791 293.892Z" fill="#98C8DB"/>
<path d="M42.0905 291.682C42.6186 291.682 43.0467 291.251 43.0467 290.719C43.0467 290.187 42.6186 289.755 42.0905 289.755C41.5623 289.755 41.1342 290.187 41.1342 290.719C41.1342 291.251 41.5623 291.682 42.0905 291.682Z" fill="#98C8DB"/>
<path d="M47.7013 289.474C48.2294 289.474 48.6576 289.043 48.6576 288.511C48.6576 287.979 48.2294 287.547 47.7013 287.547C47.1732 287.547 46.745 287.979 46.745 288.511C46.745 289.043 47.1732 289.474 47.7013 289.474Z" fill="#98C8DB"/>
<path d="M53.3124 287.264C53.8405 287.264 54.2687 286.833 54.2687 286.301C54.2687 285.769 53.8405 285.337 53.3124 285.337C52.7842 285.337 52.3561 285.769 52.3561 286.301C52.3561 286.833 52.7842 287.264 53.3124 287.264Z" fill="#98C8DB"/>
<path d="M58.9232 285.056C59.4514 285.056 59.8795 284.625 59.8795 284.093C59.8795 283.561 59.4514 283.129 58.9232 283.129C58.3951 283.129 57.9669 283.561 57.9669 284.093C57.9669 284.625 58.3951 285.056 58.9232 285.056Z" fill="#98C8DB"/>
<path d="M40.3082 295.425C40.8364 295.425 41.2645 294.993 41.2645 294.461C41.2645 293.929 40.8364 293.498 40.3082 293.498C39.7801 293.498 39.352 293.929 39.352 294.461C39.352 294.993 39.7801 295.425 40.3082 295.425Z" fill="#98C8DB"/>
<path d="M45.9193 293.217C46.4474 293.217 46.8755 292.785 46.8755 292.253C46.8755 291.721 46.4474 291.29 45.9193 291.29C45.3911 291.29 44.963 291.721 44.963 292.253C44.963 292.785 45.3911 293.217 45.9193 293.217Z" fill="#98C8DB"/>
<path d="M51.5305 291.006C52.0586 291.006 52.4867 290.575 52.4867 290.043C52.4867 289.511 52.0586 289.08 51.5305 289.08C51.0023 289.08 50.5742 289.511 50.5742 290.043C50.5742 290.575 51.0023 291.006 51.5305 291.006Z" fill="#98C8DB"/>
<path d="M57.1415 288.798C57.6697 288.798 58.0978 288.367 58.0978 287.835C58.0978 287.303 57.6697 286.871 57.1415 286.871C56.6134 286.871 56.1853 287.303 56.1853 287.835C56.1853 288.367 56.6134 288.798 57.1415 288.798Z" fill="#98C8DB"/>
<path d="M49.8851 295.101C50.4132 295.101 50.8414 294.67 50.8414 294.137C50.8414 293.605 50.4132 293.174 49.8851 293.174C49.357 293.174 48.9288 293.605 48.9288 294.137C48.9288 294.67 49.357 295.101 49.8851 295.101Z" fill="#98C8DB"/>
<path d="M55.496 292.89C56.0241 292.89 56.4522 292.459 56.4522 291.927C56.4522 291.395 56.0241 290.964 55.496 290.964C54.9678 290.964 54.5397 291.395 54.5397 291.927C54.5397 292.459 54.9678 292.89 55.496 292.89Z" fill="#98C8DB"/>
<path d="M61.1054 290.682C61.6335 290.682 62.0616 290.251 62.0616 289.719C62.0616 289.187 61.6335 288.756 61.1054 288.756C60.5772 288.756 60.1491 289.187 60.1491 289.719C60.1491 290.251 60.5772 290.682 61.1054 290.682Z" fill="#98C8DB"/>
<path d="M68.7354 289.474C69.2635 289.474 69.6917 289.043 69.6917 288.511C69.6917 287.979 69.2635 287.547 68.7354 287.547C68.2073 287.547 67.7791 287.979 67.7791 288.511C67.7791 289.043 68.2073 289.474 68.7354 289.474Z" fill="#98C8DB"/>
<path d="M73.0707 293.217C73.5989 293.217 74.027 292.785 74.027 292.253C74.027 291.721 73.5989 291.29 73.0707 291.29C72.5426 291.29 72.1145 291.721 72.1145 292.253C72.1145 292.785 72.5426 293.217 73.0707 293.217Z" fill="#98C8DB"/>
<path d="M59.4598 294.775C59.988 294.775 60.4161 294.344 60.4161 293.812C60.4161 293.28 59.988 292.848 59.4598 292.848C58.9317 292.848 58.5036 293.28 58.5036 293.812C58.5036 294.344 58.9317 294.775 59.4598 294.775Z" fill="#98C8DB"/>
<path d="M65.0709 292.567C65.599 292.567 66.0271 292.136 66.0271 291.603C66.0271 291.071 65.599 290.64 65.0709 290.64C64.5427 290.64 64.1146 291.071 64.1146 291.603C64.1146 292.136 64.5427 292.567 65.0709 292.567Z" fill="#98C8DB"/>
<path d="M69.0367 294.451C69.5649 294.451 69.993 294.02 69.993 293.488C69.993 292.956 69.5649 292.524 69.0367 292.524C68.5086 292.524 68.0805 292.956 68.0805 293.488C68.0805 294.02 68.5086 294.451 69.0367 294.451Z" fill="#98C8DB"/>
<path d="M156.458 223.226C156.986 223.226 157.414 222.795 157.414 222.263C157.414 221.731 156.986 221.299 156.458 221.299C155.929 221.299 155.501 221.731 155.501 222.263C155.501 222.795 155.929 223.226 156.458 223.226Z" fill="#98C8DB"/>
<path d="M147.421 228.116C147.949 228.116 148.377 227.685 148.377 227.153C148.377 226.62 147.949 226.189 147.421 226.189C146.893 226.189 146.465 226.62 146.465 227.153C146.465 227.685 146.893 228.116 147.421 228.116Z" fill="#98C8DB"/>
<path d="M153.444 226.387C153.972 226.387 154.4 225.956 154.4 225.424C154.4 224.892 153.972 224.461 153.444 224.461C152.916 224.461 152.488 224.892 152.488 225.424C152.488 225.956 152.916 226.387 153.444 226.387Z" fill="#98C8DB"/>
<path d="M150.432 229.751C150.96 229.751 151.389 229.32 151.389 228.788C151.389 228.256 150.96 227.825 150.432 227.825C149.904 227.825 149.476 228.256 149.476 228.788C149.476 229.32 149.904 229.751 150.432 229.751Z" fill="#98C8DB"/>
<path d="M150.432 225.501C150.96 225.501 151.389 225.07 151.389 224.538C151.389 224.006 150.96 223.574 150.432 223.574C149.904 223.574 149.476 224.006 149.476 224.538C149.476 225.07 149.904 225.501 150.432 225.501Z" fill="#98C8DB"/>
<path d="M141.424 233.057C141.952 233.057 142.38 232.625 142.38 232.093C142.38 231.561 141.952 231.13 141.424 231.13C140.896 231.13 140.468 231.561 140.468 232.093C140.468 232.625 140.896 233.057 141.424 233.057Z" fill="#98C8DB"/>
<path d="M147.421 232.854C147.949 232.854 148.377 232.423 148.377 231.891C148.377 231.358 147.949 230.927 147.421 230.927C146.893 230.927 146.465 231.358 146.465 231.891C146.465 232.423 146.893 232.854 147.421 232.854Z" fill="#98C8DB"/>
<path d="M153.444 232.854C153.972 232.854 154.4 232.423 154.4 231.891C154.4 231.358 153.972 230.927 153.444 230.927C152.916 230.927 152.488 231.358 152.488 231.891C152.488 232.423 152.916 232.854 153.444 232.854Z" fill="#98C8DB"/>
<path d="M138.6 236.216C139.128 236.216 139.556 235.785 139.556 235.252C139.556 234.72 139.128 234.289 138.6 234.289C138.071 234.289 137.643 234.72 137.643 235.252C137.643 235.785 138.071 236.216 138.6 236.216Z" fill="#98C8DB"/>
<path d="M144.408 235.999C144.936 235.999 145.364 235.568 145.364 235.036C145.364 234.504 144.936 234.073 144.408 234.073C143.88 234.073 143.451 234.504 143.451 235.036C143.451 235.568 143.88 235.999 144.408 235.999Z" fill="#98C8DB"/>
<path d="M144.408 230.534C144.936 230.534 145.364 230.103 145.364 229.571C145.364 229.039 144.936 228.608 144.408 228.608C143.88 228.608 143.451 229.039 143.451 229.571C143.451 230.103 143.88 230.534 144.408 230.534Z" fill="#98C8DB"/>
<path d="M150.432 235.999C150.96 235.999 151.389 235.568 151.389 235.036C151.389 234.504 150.96 234.073 150.432 234.073C149.904 234.073 149.476 234.504 149.476 235.036C149.476 235.568 149.904 235.999 150.432 235.999Z" fill="#98C8DB"/>
<path d="M156.458 235.999C156.986 235.999 157.414 235.568 157.414 235.036C157.414 234.504 156.986 234.073 156.458 234.073C155.929 234.073 155.501 234.504 155.501 235.036C155.501 235.568 155.929 235.999 156.458 235.999Z" fill="#98C8DB"/>
<path d="M90.1913 236.216C90.7194 236.216 91.1475 235.785 91.1475 235.252C91.1475 234.72 90.7194 234.289 90.1913 234.289C89.6631 234.289 89.235 234.72 89.235 235.252C89.235 235.785 89.6631 236.216 90.1913 236.216Z" fill="#98C8DB"/>
<path d="M92.7647 238.592C93.2929 238.592 93.721 238.161 93.721 237.628C93.721 237.096 93.2929 236.665 92.7647 236.665C92.2366 236.665 91.8084 237.096 91.8084 237.628C91.8084 238.161 92.2366 238.592 92.7647 238.592Z" fill="#98C8DB"/>
<path d="M85.454 236.647C85.9822 236.647 86.4103 236.216 86.4103 235.684C86.4103 235.151 85.9822 234.72 85.454 234.72C84.9259 234.72 84.4978 235.151 84.4978 235.684C84.4978 236.216 84.9259 236.647 85.454 236.647Z" fill="#98C8DB"/>
<path d="M95.3984 236.013C95.9265 236.013 96.3547 235.582 96.3547 235.05C96.3547 234.518 95.9265 234.087 95.3984 234.087C94.8703 234.087 94.4421 234.518 94.4421 235.05C94.4421 235.582 94.8703 236.013 95.3984 236.013Z" fill="#98C8DB"/>
<path d="M103.043 236.647C103.571 236.647 103.999 236.216 103.999 235.684C103.999 235.151 103.571 234.72 103.043 234.72C102.514 234.72 102.086 235.151 102.086 235.684C102.086 236.216 102.514 236.647 103.043 236.647Z" fill="#98C8DB"/>
<path d="M135.371 239.147C135.899 239.147 136.327 238.715 136.327 238.183C136.327 237.651 135.899 237.22 135.371 237.22C134.843 237.22 134.415 237.651 134.415 238.183C134.415 238.715 134.843 239.147 135.371 239.147Z" fill="#98C8DB"/>
<path d="M141.396 239.147C141.924 239.147 142.352 238.715 142.352 238.183C142.352 237.651 141.924 237.22 141.396 237.22C140.868 237.22 140.44 237.651 140.44 238.183C140.44 238.715 140.868 239.147 141.396 239.147Z" fill="#98C8DB"/>
<path d="M147.421 239.147C147.949 239.147 148.377 238.715 148.377 238.183C148.377 237.651 147.949 237.22 147.421 237.22C146.893 237.22 146.465 237.651 146.465 238.183C146.465 238.715 146.893 239.147 147.421 239.147Z" fill="#98C8DB"/>
<path d="M153.444 239.147C153.972 239.147 154.4 238.715 154.4 238.183C154.4 237.651 153.972 237.22 153.444 237.22C152.916 237.22 152.488 237.651 152.488 238.183C152.488 238.715 152.916 239.147 153.444 239.147Z" fill="#98C8DB"/>
<path d="M159.039 239.147C159.567 239.147 159.995 238.715 159.995 238.183C159.995 237.651 159.567 237.22 159.039 237.22C158.511 237.22 158.083 237.651 158.083 238.183C158.083 238.715 158.511 239.147 159.039 239.147Z" fill="#98C8DB"/>
<path d="M99.2277 240.347C99.7558 240.347 100.184 239.915 100.184 239.383C100.184 238.851 99.7558 238.42 99.2277 238.42C98.6995 238.42 98.2714 238.851 98.2714 239.383C98.2714 239.915 98.6995 240.347 99.2277 240.347Z" fill="#98C8DB"/>
<path d="M99.2277 236.704C99.7558 236.704 100.184 236.272 100.184 235.74C100.184 235.208 99.7558 234.777 99.2277 234.777C98.6995 234.777 98.2714 235.208 98.2714 235.74C98.2714 236.272 98.6995 236.704 99.2277 236.704Z" fill="#98C8DB"/>
<path d="M105.253 239.147C105.781 239.147 106.209 238.715 106.209 238.183C106.209 237.651 105.781 237.22 105.253 237.22C104.724 237.22 104.296 237.651 104.296 238.183C104.296 238.715 104.724 239.147 105.253 239.147Z" fill="#98C8DB"/>
<path d="M111.275 239.147C111.804 239.147 112.232 238.715 112.232 238.183C112.232 237.651 111.804 237.22 111.275 237.22C110.747 237.22 110.319 237.651 110.319 238.183C110.319 238.715 110.747 239.147 111.275 239.147Z" fill="#98C8DB"/>
<path d="M132.36 242.292C132.888 242.292 133.316 241.86 133.316 241.328C133.316 240.796 132.888 240.365 132.36 240.365C131.831 240.365 131.403 240.796 131.403 241.328C131.403 241.86 131.831 242.292 132.36 242.292Z" fill="#98C8DB"/>
<path d="M138.385 242.292C138.913 242.292 139.341 241.86 139.341 241.328C139.341 240.796 138.913 240.365 138.385 240.365C137.857 240.365 137.428 240.796 137.428 241.328C137.428 241.86 137.857 242.292 138.385 242.292Z" fill="#98C8DB"/>
<path d="M144.408 242.292C144.936 242.292 145.364 241.86 145.364 241.328C145.364 240.796 144.936 240.365 144.408 240.365C143.88 240.365 143.451 240.796 143.451 241.328C143.451 241.86 143.88 242.292 144.408 242.292Z" fill="#98C8DB"/>
<path d="M150.432 242.292C150.96 242.292 151.389 241.86 151.389 241.328C151.389 240.796 150.96 240.365 150.432 240.365C149.904 240.365 149.476 240.796 149.476 241.328C149.476 241.86 149.904 242.292 150.432 242.292Z" fill="#98C8DB"/>
<path d="M156.458 242.292C156.986 242.292 157.414 241.86 157.414 241.328C157.414 240.796 156.986 240.365 156.458 240.365C155.929 240.365 155.501 240.796 155.501 241.328C155.501 241.86 155.929 242.292 156.458 242.292Z" fill="#98C8DB"/>
<path d="M108.264 242.292C108.792 242.292 109.22 241.86 109.22 241.328C109.22 240.796 108.792 240.365 108.264 240.365C107.736 240.365 107.308 240.796 107.308 241.328C107.308 241.86 107.736 242.292 108.264 242.292Z" fill="#98C8DB"/>
<path d="M114.287 242.292C114.815 242.292 115.243 241.86 115.243 241.328C115.243 240.796 114.815 240.365 114.287 240.365C113.759 240.365 113.331 240.796 113.331 241.328C113.331 241.86 113.759 242.292 114.287 242.292Z" fill="#98C8DB"/>
<path d="M120.312 242.089C120.84 242.089 121.268 241.658 121.268 241.126C121.268 240.594 120.84 240.163 120.312 240.163C119.784 240.163 119.356 240.594 119.356 241.126C119.356 241.658 119.784 242.089 120.312 242.089Z" fill="#98C8DB"/>
<path d="M126.337 242.292C126.865 242.292 127.293 241.86 127.293 241.328C127.293 240.796 126.865 240.365 126.337 240.365C125.809 240.365 125.38 240.796 125.38 241.328C125.38 241.86 125.809 242.292 126.337 242.292Z" fill="#98C8DB"/>
<path d="M129.348 245.439C129.876 245.439 130.305 245.008 130.305 244.476C130.305 243.944 129.876 243.512 129.348 243.512C128.82 243.512 128.392 243.944 128.392 244.476C128.392 245.008 128.82 245.439 129.348 245.439Z" fill="#98C8DB"/>
<path d="M135.371 245.439C135.899 245.439 136.327 245.008 136.327 244.476C136.327 243.944 135.899 243.512 135.371 243.512C134.843 243.512 134.415 243.944 134.415 244.476C134.415 245.008 134.843 245.439 135.371 245.439Z" fill="#98C8DB"/>
<path d="M141.396 245.439C141.924 245.439 142.352 245.008 142.352 244.476C142.352 243.944 141.924 243.512 141.396 243.512C140.868 243.512 140.44 243.944 140.44 244.476C140.44 245.008 140.868 245.439 141.396 245.439Z" fill="#98C8DB"/>
<path d="M147.421 245.439C147.949 245.439 148.377 245.008 148.377 244.476C148.377 243.944 147.949 243.512 147.421 243.512C146.893 243.512 146.465 243.944 146.465 244.476C146.465 245.008 146.893 245.439 147.421 245.439Z" fill="#98C8DB"/>
<path d="M153.444 245.439C153.972 245.439 154.4 245.008 154.4 244.476C154.4 243.944 153.972 243.512 153.444 243.512C152.916 243.512 152.488 243.944 152.488 244.476C152.488 245.008 152.916 245.439 153.444 245.439Z" fill="#98C8DB"/>
<path d="M159.469 245.439C159.997 245.439 160.425 245.008 160.425 244.476C160.425 243.944 159.997 243.512 159.469 243.512C158.941 243.512 158.513 243.944 158.513 244.476C158.513 245.008 158.941 245.439 159.469 245.439Z" fill="#98C8DB"/>
<path d="M111.276 245.439C111.804 245.439 112.232 245.008 112.232 244.476C112.232 243.944 111.804 243.512 111.276 243.512C110.747 243.512 110.319 243.944 110.319 244.476C110.319 245.008 110.747 245.439 111.276 245.439Z" fill="#98C8DB"/>
<path d="M117.3 245.439C117.829 245.439 118.257 245.008 118.257 244.476C118.257 243.944 117.829 243.512 117.3 243.512C116.772 243.512 116.344 243.944 116.344 244.476C116.344 245.008 116.772 245.439 117.3 245.439Z" fill="#98C8DB"/>
<path d="M123.323 245.439C123.852 245.439 124.28 245.008 124.28 244.476C124.28 243.944 123.852 243.512 123.323 243.512C122.795 243.512 122.367 243.944 122.367 244.476C122.367 245.008 122.795 245.439 123.323 245.439Z" fill="#98C8DB"/>
<path d="M132.36 248.584C132.888 248.584 133.316 248.153 133.316 247.621C133.316 247.089 132.888 246.657 132.36 246.657C131.831 246.657 131.403 247.089 131.403 247.621C131.403 248.153 131.831 248.584 132.36 248.584Z" fill="#98C8DB"/>
<path d="M138.385 248.584C138.913 248.584 139.341 248.153 139.341 247.621C139.341 247.089 138.913 246.657 138.385 246.657C137.857 246.657 137.428 247.089 137.428 247.621C137.428 248.153 137.857 248.584 138.385 248.584Z" fill="#98C8DB"/>
<path d="M144.408 248.584C144.936 248.584 145.364 248.153 145.364 247.621C145.364 247.089 144.936 246.657 144.408 246.657C143.88 246.657 143.451 247.089 143.451 247.621C143.451 248.153 143.88 248.584 144.408 248.584Z" fill="#98C8DB"/>
<path d="M150.432 248.584C150.96 248.584 151.389 248.153 151.389 247.621C151.389 247.089 150.96 246.657 150.432 246.657C149.904 246.657 149.476 247.089 149.476 247.621C149.476 248.153 149.904 248.584 150.432 248.584Z" fill="#98C8DB"/>
<path d="M156.458 248.584C156.986 248.584 157.414 248.153 157.414 247.621C157.414 247.089 156.986 246.657 156.458 246.657C155.929 246.657 155.501 247.089 155.501 247.621C155.501 248.153 155.929 248.584 156.458 248.584Z" fill="#98C8DB"/>
<path d="M114.287 248.584C114.815 248.584 115.243 248.153 115.243 247.621C115.243 247.089 114.815 246.657 114.287 246.657C113.759 246.657 113.331 247.089 113.331 247.621C113.331 248.153 113.759 248.584 114.287 248.584Z" fill="#98C8DB"/>
<path d="M120.312 248.584C120.84 248.584 121.268 248.153 121.268 247.621C121.268 247.089 120.84 246.657 120.312 246.657C119.784 246.657 119.356 247.089 119.356 247.621C119.356 248.153 119.784 248.584 120.312 248.584Z" fill="#98C8DB"/>
<path d="M126.337 248.584C126.865 248.584 127.293 248.153 127.293 247.621C127.293 247.089 126.865 246.657 126.337 246.657C125.809 246.657 125.38 247.089 125.38 247.621C125.38 248.153 125.809 248.584 126.337 248.584Z" fill="#98C8DB"/>
<path d="M129.348 251.731C129.876 251.731 130.305 251.3 130.305 250.768C130.305 250.236 129.876 249.805 129.348 249.805C128.82 249.805 128.392 250.236 128.392 250.768C128.392 251.3 128.82 251.731 129.348 251.731Z" fill="#98C8DB"/>
<path d="M135.371 251.731C135.899 251.731 136.327 251.3 136.327 250.768C136.327 250.236 135.899 249.805 135.371 249.805C134.843 249.805 134.415 250.236 134.415 250.768C134.415 251.3 134.843 251.731 135.371 251.731Z" fill="#98C8DB"/>
<path d="M141.396 251.731C141.924 251.731 142.352 251.3 142.352 250.768C142.352 250.236 141.924 249.805 141.396 249.805C140.868 249.805 140.44 250.236 140.44 250.768C140.44 251.3 140.868 251.731 141.396 251.731Z" fill="#98C8DB"/>
<path d="M147.421 251.731C147.949 251.731 148.377 251.3 148.377 250.768C148.377 250.236 147.949 249.805 147.421 249.805C146.893 249.805 146.465 250.236 146.465 250.768C146.465 251.3 146.893 251.731 147.421 251.731Z" fill="#98C8DB"/>
<path d="M153.444 251.731C153.972 251.731 154.4 251.3 154.4 250.768C154.4 250.236 153.972 249.805 153.444 249.805C152.916 249.805 152.488 250.236 152.488 250.768C152.488 251.3 152.916 251.731 153.444 251.731Z" fill="#98C8DB"/>
<path d="M159.469 251.731C159.997 251.731 160.425 251.3 160.425 250.768C160.425 250.236 159.997 249.805 159.469 249.805C158.941 249.805 158.513 250.236 158.513 250.768C158.513 251.3 158.941 251.731 159.469 251.731Z" fill="#98C8DB"/>
<path d="M117.3 251.731C117.828 251.731 118.257 251.3 118.257 250.768C118.257 250.236 117.828 249.805 117.3 249.805C116.772 249.805 116.344 250.236 116.344 250.768C116.344 251.3 116.772 251.731 117.3 251.731Z" fill="#98C8DB"/>
<path d="M123.323 251.731C123.852 251.731 124.28 251.3 124.28 250.768C124.28 250.236 123.852 249.805 123.323 249.805C122.795 249.805 122.367 250.236 122.367 250.768C122.367 251.3 122.795 251.731 123.323 251.731Z" fill="#98C8DB"/>
<path d="M132.36 254.563C132.888 254.563 133.316 254.132 133.316 253.6C133.316 253.068 132.888 252.636 132.36 252.636C131.831 252.636 131.403 253.068 131.403 253.6C131.403 254.132 131.831 254.563 132.36 254.563Z" fill="#98C8DB"/>
<path d="M138.385 254.563C138.913 254.563 139.341 254.132 139.341 253.6C139.341 253.068 138.913 252.636 138.385 252.636C137.857 252.636 137.428 253.068 137.428 253.6C137.428 254.132 137.857 254.563 138.385 254.563Z" fill="#98C8DB"/>
<path d="M144.408 254.563C144.936 254.563 145.364 254.132 145.364 253.6C145.364 253.068 144.936 252.636 144.408 252.636C143.88 252.636 143.451 253.068 143.451 253.6C143.451 254.132 143.88 254.563 144.408 254.563Z" fill="#98C8DB"/>
<path d="M150.432 254.563C150.96 254.563 151.389 254.132 151.389 253.6C151.389 253.068 150.96 252.636 150.432 252.636C149.904 252.636 149.476 253.068 149.476 253.6C149.476 254.132 149.904 254.563 150.432 254.563Z" fill="#98C8DB"/>
<path d="M156.458 254.563C156.986 254.563 157.414 254.132 157.414 253.6C157.414 253.068 156.986 252.636 156.458 252.636C155.929 252.636 155.501 253.068 155.501 253.6C155.501 254.132 155.929 254.563 156.458 254.563Z" fill="#98C8DB"/>
<path d="M168.101 267.401C168.63 267.401 169.058 266.97 169.058 266.438C169.058 265.906 168.63 265.474 168.101 265.474C167.573 265.474 167.145 265.906 167.145 266.438C167.145 266.97 167.573 267.401 168.101 267.401Z" fill="#98C8DB"/>
<path d="M168.101 273.675C168.63 273.675 169.058 273.244 169.058 272.712C169.058 272.18 168.63 271.748 168.101 271.748C167.573 271.748 167.145 272.18 167.145 272.712C167.145 273.244 167.573 273.675 168.101 273.675Z" fill="#98C8DB"/>
<path d="M120.312 254.563C120.84 254.563 121.268 254.132 121.268 253.6C121.268 253.068 120.84 252.636 120.312 252.636C119.784 252.636 119.356 253.068 119.356 253.6C119.356 254.132 119.784 254.563 120.312 254.563Z" fill="#98C8DB"/>
<path d="M126.337 254.563C126.865 254.563 127.293 254.132 127.293 253.6C127.293 253.068 126.865 252.636 126.337 252.636C125.809 252.636 125.38 253.068 125.38 253.6C125.38 254.132 125.809 254.563 126.337 254.563Z" fill="#98C8DB"/>
<path d="M129.348 257.773C129.876 257.773 130.305 257.342 130.305 256.81C130.305 256.278 129.876 255.846 129.348 255.846C128.82 255.846 128.392 256.278 128.392 256.81C128.392 257.342 128.82 257.773 129.348 257.773Z" fill="#98C8DB"/>
<path d="M135.371 257.773C135.899 257.773 136.327 257.342 136.327 256.81C136.327 256.278 135.899 255.846 135.371 255.846C134.843 255.846 134.415 256.278 134.415 256.81C134.415 257.342 134.843 257.773 135.371 257.773Z" fill="#98C8DB"/>
<path d="M141.396 257.773C141.924 257.773 142.352 257.342 142.352 256.81C142.352 256.278 141.924 255.846 141.396 255.846C140.868 255.846 140.44 256.278 140.44 256.81C140.44 257.342 140.868 257.773 141.396 257.773Z" fill="#98C8DB"/>
<path d="M147.421 257.773C147.949 257.773 148.377 257.342 148.377 256.81C148.377 256.278 147.949 255.846 147.421 255.846C146.893 255.846 146.465 256.278 146.465 256.81C146.465 257.342 146.893 257.773 147.421 257.773Z" fill="#98C8DB"/>
<path d="M153.444 257.773C153.972 257.773 154.4 257.342 154.4 256.81C154.4 256.278 153.972 255.846 153.444 255.846C152.916 255.846 152.488 256.278 152.488 256.81C152.488 257.342 152.916 257.773 153.444 257.773Z" fill="#98C8DB"/>
<path d="M159.469 257.773C159.997 257.773 160.425 257.342 160.425 256.81C160.425 256.278 159.997 255.846 159.469 255.846C158.941 255.846 158.513 256.278 158.513 256.81C158.513 257.342 158.941 257.773 159.469 257.773Z" fill="#98C8DB"/>
<path d="M132.36 260.981C132.888 260.981 133.316 260.55 133.316 260.018C133.316 259.486 132.888 259.054 132.36 259.054C131.831 259.054 131.403 259.486 131.403 260.018C131.403 260.55 131.831 260.981 132.36 260.981Z" fill="#98C8DB"/>
<path d="M138.385 260.981C138.913 260.981 139.341 260.55 139.341 260.018C139.341 259.486 138.913 259.054 138.385 259.054C137.857 259.054 137.428 259.486 137.428 260.018C137.428 260.55 137.857 260.981 138.385 260.981Z" fill="#98C8DB"/>
<path d="M144.408 260.981C144.936 260.981 145.364 260.55 145.364 260.018C145.364 259.486 144.936 259.054 144.408 259.054C143.88 259.054 143.451 259.486 143.451 260.018C143.451 260.55 143.88 260.981 144.408 260.981Z" fill="#98C8DB"/>
<path d="M150.432 260.981C150.96 260.981 151.389 260.55 151.389 260.018C151.389 259.486 150.96 259.054 150.432 259.054C149.904 259.054 149.476 259.486 149.476 260.018C149.476 260.55 149.904 260.981 150.432 260.981Z" fill="#98C8DB"/>
<path d="M156.458 260.981C156.986 260.981 157.414 260.55 157.414 260.018C157.414 259.486 156.986 259.054 156.458 259.054C155.929 259.054 155.501 259.486 155.501 260.018C155.501 260.55 155.929 260.981 156.458 260.981Z" fill="#98C8DB"/>
<path d="M162.48 260.981C163.009 260.981 163.437 260.55 163.437 260.018C163.437 259.486 163.009 259.054 162.48 259.054C161.952 259.054 161.524 259.486 161.524 260.018C161.524 260.55 161.952 260.981 162.48 260.981Z" fill="#98C8DB"/>
<path d="M135.371 264.191C135.899 264.191 136.327 263.76 136.327 263.228C136.327 262.696 135.899 262.264 135.371 262.264C134.843 262.264 134.415 262.696 134.415 263.228C134.415 263.76 134.843 264.191 135.371 264.191Z" fill="#98C8DB"/>
<path d="M141.396 264.191C141.924 264.191 142.352 263.76 142.352 263.228C142.352 262.696 141.924 262.264 141.396 262.264C140.868 262.264 140.44 262.696 140.44 263.228C140.44 263.76 140.868 264.191 141.396 264.191Z" fill="#98C8DB"/>
<path d="M147.421 264.191C147.949 264.191 148.377 263.76 148.377 263.228C148.377 262.696 147.949 262.264 147.421 262.264C146.893 262.264 146.465 262.696 146.465 263.228C146.465 263.76 146.893 264.191 147.421 264.191Z" fill="#98C8DB"/>
<path d="M153.444 264.191C153.972 264.191 154.4 263.76 154.4 263.228C154.4 262.696 153.972 262.264 153.444 262.264C152.916 262.264 152.488 262.696 152.488 263.228C152.488 263.76 152.916 264.191 153.444 264.191Z" fill="#98C8DB"/>
<path d="M159.469 264.191C159.997 264.191 160.425 263.76 160.425 263.228C160.425 262.696 159.997 262.264 159.469 262.264C158.941 262.264 158.513 262.696 158.513 263.228C158.513 263.76 158.941 264.191 159.469 264.191Z" fill="#98C8DB"/>
<path d="M165.492 264.191C166.02 264.191 166.448 263.76 166.448 263.228C166.448 262.696 166.02 262.264 165.492 262.264C164.964 262.264 164.536 262.696 164.536 263.228C164.536 263.76 164.964 264.191 165.492 264.191Z" fill="#98C8DB"/>
<path d="M144.408 267.401C144.936 267.401 145.364 266.97 145.364 266.438C145.364 265.906 144.936 265.474 144.408 265.474C143.88 265.474 143.451 265.906 143.451 266.438C143.451 266.97 143.88 267.401 144.408 267.401Z" fill="#98C8DB"/>
<path d="M150.432 267.401C150.96 267.401 151.389 266.97 151.389 266.438C151.389 265.906 150.96 265.474 150.432 265.474C149.904 265.474 149.476 265.906 149.476 266.438C149.476 266.97 149.904 267.401 150.432 267.401Z" fill="#98C8DB"/>
<path d="M156.458 267.401C156.986 267.401 157.414 266.97 157.414 266.438C157.414 265.906 156.986 265.474 156.458 265.474C155.929 265.474 155.501 265.906 155.501 266.438C155.501 266.97 155.929 267.401 156.458 267.401Z" fill="#98C8DB"/>
<path d="M162.48 267.401C163.009 267.401 163.437 266.97 163.437 266.438C163.437 265.906 163.009 265.474 162.48 265.474C161.952 265.474 161.524 265.906 161.524 266.438C161.524 266.97 161.952 267.401 162.48 267.401Z" fill="#98C8DB"/>
<path d="M162.422 273.244C162.95 273.244 163.378 272.813 163.378 272.281C163.378 271.749 162.95 271.317 162.422 271.317C161.894 271.317 161.466 271.749 161.466 272.281C161.466 272.813 161.894 273.244 162.422 273.244Z" fill="#98C8DB"/>
<path d="M147.421 270.178C147.949 270.178 148.377 269.746 148.377 269.214C148.377 268.682 147.949 268.251 147.421 268.251C146.893 268.251 146.465 268.682 146.465 269.214C146.465 269.746 146.893 270.178 147.421 270.178Z" fill="#98C8DB"/>
<path d="M153.444 270.609C153.972 270.609 154.4 270.178 154.4 269.646C154.4 269.114 153.972 268.682 153.444 268.682C152.916 268.682 152.488 269.114 152.488 269.646C152.488 270.178 152.916 270.609 153.444 270.609Z" fill="#98C8DB"/>
<path d="M159.469 270.609C159.997 270.609 160.425 270.178 160.425 269.646C160.425 269.114 159.997 268.682 159.469 268.682C158.941 268.682 158.513 269.114 158.513 269.646C158.513 270.178 158.941 270.609 159.469 270.609Z" fill="#98C8DB"/>
<path d="M165.492 270.609C166.02 270.609 166.448 270.178 166.448 269.646C166.448 269.114 166.02 268.682 165.492 268.682C164.964 268.682 164.536 269.114 164.536 269.646C164.536 270.178 164.964 270.609 165.492 270.609Z" fill="#98C8DB"/>
<path d="M171.72 270.609C172.248 270.609 172.676 270.178 172.676 269.646C172.676 269.114 172.248 268.682 171.72 268.682C171.191 268.682 170.763 269.114 170.763 269.646C170.763 270.178 171.191 270.609 171.72 270.609Z" fill="#98C8DB"/>
<path d="M171.72 274.859C172.248 274.859 172.676 274.428 172.676 273.896C172.676 273.364 172.248 272.932 171.72 272.932C171.192 272.932 170.763 273.364 170.763 273.896C170.763 274.428 171.192 274.859 171.72 274.859Z" fill="#98C8DB"/>
<path d="M393.692 294.666V368.405H259.396C148.044 368.405 50.9839 338.677 0 294.666H393.692Z" fill="#98C8DB"/>
<path d="M247.725 334.242C248.1 333.865 248.545 333.565 249.034 333.36C249.524 333.156 250.049 333.051 250.579 333.051C251.109 333.051 251.634 333.156 252.123 333.36C252.613 333.565 253.058 333.865 253.433 334.242V334.242C254.189 335.004 255.216 335.432 256.285 335.432C257.355 335.432 258.381 335.004 259.138 334.242V334.242C259.513 333.865 259.958 333.565 260.447 333.36C260.937 333.156 261.462 333.051 261.992 333.051C262.522 333.051 263.047 333.156 263.536 333.36C264.026 333.565 264.471 333.865 264.846 334.242L264.872 334.269C265.246 334.646 265.691 334.946 266.181 335.151C266.671 335.355 267.195 335.46 267.726 335.46C268.256 335.46 268.78 335.355 269.27 335.151C269.76 334.946 270.205 334.646 270.579 334.269L270.662 334.186C271.418 333.424 272.445 332.996 273.514 332.996C274.584 332.996 275.61 333.424 276.367 334.186L276.45 334.269C276.824 334.646 277.269 334.946 277.758 335.15C278.248 335.355 278.772 335.46 279.302 335.46C279.832 335.46 280.357 335.355 280.846 335.15C281.336 334.946 281.781 334.646 282.155 334.269L282.211 334.214C282.968 333.452 283.994 333.024 285.064 333.024C286.134 333.024 287.16 333.452 287.917 334.214L287.971 334.269C288.346 334.646 288.791 334.946 289.28 335.151C289.77 335.355 290.295 335.46 290.825 335.46C291.355 335.46 291.88 335.355 292.369 335.151C292.859 334.946 293.304 334.646 293.679 334.269L293.705 334.242C294.079 333.865 294.524 333.565 295.014 333.36C295.503 333.156 296.028 333.051 296.558 333.051C297.088 333.051 297.613 333.156 298.103 333.36C298.593 333.565 299.038 333.865 299.412 334.242" stroke="white" stroke-width="5" stroke-miterlimit="10" stroke-linecap="round"/>
<path d="M299.444 334.269C299.819 334.646 300.264 334.946 300.753 335.15C301.243 335.355 301.767 335.46 302.297 335.46C302.827 335.46 303.352 335.355 303.841 335.15C304.331 334.946 304.776 334.646 305.15 334.269L305.178 334.242C305.553 333.865 305.997 333.565 306.487 333.361C306.976 333.156 307.501 333.051 308.031 333.051C308.561 333.051 309.085 333.156 309.575 333.361C310.064 333.565 310.509 333.865 310.884 334.242" stroke="white" stroke-width="5" stroke-miterlimit="10" stroke-linecap="round"/>
<path d="M264.846 339.49L264.872 339.517C265.247 339.895 265.691 340.194 266.181 340.399C266.671 340.603 267.196 340.708 267.726 340.708C268.256 340.708 268.781 340.603 269.27 340.399C269.76 340.194 270.205 339.895 270.579 339.517L270.662 339.434C271.419 338.672 272.445 338.244 273.515 338.244C274.584 338.244 275.611 338.672 276.367 339.434L276.45 339.517C276.824 339.894 277.269 340.194 277.758 340.399C278.248 340.603 278.773 340.708 279.302 340.708C279.832 340.708 280.357 340.603 280.847 340.399C281.336 340.194 281.781 339.894 282.155 339.517L282.211 339.462C282.968 338.7 283.994 338.272 285.064 338.272C286.134 338.272 287.16 338.7 287.917 339.462L287.971 339.517C288.346 339.895 288.791 340.194 289.28 340.399C289.77 340.603 290.295 340.708 290.825 340.708C291.355 340.708 291.88 340.603 292.37 340.399C292.859 340.194 293.304 339.895 293.679 339.517L293.705 339.49C294.079 339.113 294.524 338.813 295.014 338.608C295.504 338.404 296.029 338.299 296.559 338.299C297.089 338.299 297.613 338.404 298.103 338.608C298.593 338.813 299.038 339.113 299.412 339.49" stroke="white" stroke-width="5" stroke-miterlimit="10" stroke-linecap="round"/>
<path d="M302.125 220.2H286.609V283.73H302.125V220.2Z" fill="white" stroke="#ED1A58" stroke-width="5" stroke-miterlimit="10"/>
<path d="M293.876 207.579H294.86C295.814 207.579 296.759 207.768 297.641 208.136C298.522 208.504 299.323 209.043 299.998 209.723C300.673 210.403 301.208 211.21 301.573 212.098C301.938 212.986 302.126 213.938 302.126 214.899V217.992H286.611V214.891C286.613 212.952 287.379 211.092 288.741 209.721C290.104 208.35 291.95 207.579 293.876 207.579Z" fill="white" stroke="#ED1A58" stroke-width="5" stroke-miterlimit="10"/>
<path d="M304.332 218H284.403V220.198H304.332V218Z" fill="white" stroke="#ED1A58" stroke-width="5" stroke-miterlimit="10"/>
<path d="M290.728 215.179H287.182V217.569H290.728V215.179Z" fill="#98C8DB"/>
<path d="M301.554 215.179H298.008V217.569H301.554V215.179Z" fill="#98C8DB"/>
<path d="M296.142 215.179H292.596V217.569H296.142V215.179Z" fill="#98C8DB"/>
<path d="M293.183 243.731V247.303H295.555V243.731H293.183Z" fill="#59221D"/>
<path d="M293.183 223.289V226.861H295.555V223.289H293.183Z" fill="#59221D"/>
<path d="M293.183 266.197V269.769H295.555V266.197H293.183Z" fill="#59221D"/>
<path d="M301.57 260.815V271.188C300.974 269.462 299.998 267.895 298.715 266.604L290.278 258.103C288.845 256.66 287.78 254.888 287.176 252.94V242.571C287.781 244.517 288.845 246.287 290.278 247.728L298.715 256.229C299.998 257.521 300.974 259.089 301.57 260.815Z" fill="#C1DEE9"/>
<path d="M301.749 283.728H293.311L290.272 280.476C288.838 279.033 287.774 277.261 287.17 275.313V264.948C287.775 266.895 288.839 268.665 290.272 270.107L298.709 278.608C299.997 279.891 301.156 281.482 301.749 283.728Z" fill="#C1DEE9"/>
<path d="M301.57 238.853V249.226C300.974 247.5 299.998 245.933 298.715 244.642L290.278 236.141C288.844 234.698 287.78 232.927 287.176 230.978V220.623C287.781 222.57 288.845 224.34 290.278 225.782L298.715 234.283C299.996 235.57 300.972 237.133 301.57 238.853Z" fill="#C1DEE9"/>
<path d="M317.091 294.623H211.449V291.462H274.001L279.307 284.325C279.591 283.942 279.96 283.631 280.385 283.417C280.81 283.202 281.278 283.091 281.753 283.091H306.982C307.457 283.091 307.926 283.203 308.35 283.417C308.775 283.631 309.144 283.942 309.429 284.325L317.091 294.623Z" fill="#59221D"/>
<path d="M316.489 294.22H306.243L299.183 284.72C298.899 284.337 298.529 284.026 298.105 283.812C297.68 283.597 297.212 283.486 296.737 283.485H306.982C307.457 283.486 307.926 283.597 308.35 283.812C308.775 284.026 309.145 284.337 309.429 284.72L316.489 294.22Z" fill="white" stroke="#59221D" stroke-width="5" stroke-miterlimit="10"/>
<path d="M294.368 207.579V201.27" stroke="#ED1A58" stroke-width="5" stroke-miterlimit="10"/>
<path d="M299.053 202.323C299.63 202.323 300.097 201.851 300.097 201.27C300.097 200.689 299.63 200.218 299.053 200.218C298.476 200.218 298.008 200.689 298.008 201.27C298.008 201.851 298.476 202.323 299.053 202.323Z" stroke="#ED1A58" stroke-width="5" stroke-miterlimit="10"/>
<path d="M290.213 202.323C290.79 202.323 291.258 201.851 291.258 201.27C291.258 200.689 290.79 200.218 290.213 200.218C289.636 200.218 289.169 200.689 289.169 201.27C289.169 201.851 289.636 202.323 290.213 202.323Z" stroke="#ED1A58" stroke-width="5" stroke-miterlimit="10"/>
<path d="M290.726 201.27H298.008" stroke="#ED1A58" stroke-width="5" stroke-miterlimit="10"/>
<path d="M198.72 263.887V299.104H179.211C188.704 289.999 195.715 277.741 198.72 263.887Z" fill="white" stroke="#ED1A58" stroke-width="5" stroke-linejoin="round"/>
<path d="M198.72 262.839V305.688" stroke="#59221D" stroke-width="5" stroke-miterlimit="10" stroke-linecap="round"/>
<path d="M215.98 294.443C215.98 296.037 215.897 297.63 215.73 299.216H199.912C201.866 293.945 202.858 288.361 202.841 282.735C202.841 273.918 200.482 265.77 196.494 259.186C207.978 265.215 215.98 278.735 215.98 294.443Z" fill="#FED4C7"/>
<path d="M174.139 306.599C174.896 305.837 175.922 305.409 176.992 305.409C178.062 305.409 179.089 305.837 179.846 306.599L179.926 306.682C180.684 307.444 181.71 307.872 182.78 307.872C183.85 307.872 184.877 307.444 185.634 306.682L185.688 306.627C186.063 306.25 186.508 305.95 186.997 305.746C187.487 305.541 188.012 305.436 188.542 305.436C189.072 305.436 189.597 305.541 190.087 305.746C190.576 305.95 191.021 306.25 191.396 306.627L191.45 306.682C192.207 307.444 193.233 307.872 194.303 307.872C195.373 307.872 196.399 307.444 197.155 306.682L197.184 306.654C197.94 305.892 198.966 305.464 200.036 305.464C201.106 305.464 202.132 305.892 202.889 306.654" stroke="white" stroke-width="5" stroke-miterlimit="10" stroke-linecap="round"/>
<path d="M202.923 306.682C203.68 307.444 204.706 307.872 205.776 307.872C206.846 307.872 207.872 307.444 208.629 306.682L208.657 306.654C209.414 305.892 210.44 305.464 211.51 305.464C212.579 305.464 213.605 305.892 214.362 306.654" stroke="white" stroke-width="5" stroke-miterlimit="10" stroke-linecap="round"/>
<path d="M179.926 311.93C180.683 312.692 181.71 313.12 182.78 313.12C183.85 313.12 184.877 312.692 185.634 311.93L185.688 311.876C186.063 311.498 186.508 311.198 186.997 310.994C187.487 310.789 188.012 310.684 188.542 310.684C189.072 310.684 189.597 310.789 190.086 310.994C190.576 311.198 191.021 311.498 191.396 311.876L191.45 311.93C192.207 312.692 193.233 313.12 194.303 313.12C195.372 313.12 196.399 312.692 197.155 311.93L197.183 311.902" stroke="white" stroke-width="5" stroke-miterlimit="10" stroke-linecap="round"/>
<path d="M289.169 68.7737C303.486 68.7737 315.093 57.0806 315.093 42.6565C315.093 28.2324 303.486 16.5393 289.169 16.5393C274.851 16.5393 263.245 28.2324 263.245 42.6565C263.245 57.0806 274.851 68.7737 289.169 68.7737Z" fill="#ED1A58"/>
<path d="M310.789 71.9309V71.5261C308.129 64.5009 300.979 59.4694 292.576 59.4694C290.05 59.4643 287.545 59.9296 285.187 60.8416C284.182 61.2343 283.087 60.5178 283.087 59.4937V59.4694C283.092 57.3008 282.682 55.1516 281.882 53.1384C279.146 46.257 272.07 41.3489 263.771 41.3489C255.472 41.3489 248.398 46.2529 245.66 53.1384C245.596 53.2943 245.536 53.4542 245.477 53.6141C245.244 53.4501 245.007 53.2923 244.766 53.1384C241.516 51.1089 237.768 50.0336 233.945 50.0336C230.121 50.0336 226.373 51.1089 223.123 53.1384C217.99 56.397 214.619 61.9062 214.619 68.1562V68.1825C214.619 69.0346 213.559 69.5122 212.86 68.9658C209.002 65.9501 203.819 64.1083 198.138 64.1083C190.769 64.1083 184.264 67.2029 180.364 71.9289L310.789 71.9309Z" fill="white"/>
<path d="M223.58 56.9112C224.108 56.9112 224.536 56.4799 224.536 55.9478C224.536 55.4157 224.108 54.9844 223.58 54.9844C223.051 54.9844 222.623 55.4157 222.623 55.9478C222.623 56.4799 223.051 56.9112 223.58 56.9112Z" fill="#98C8DB"/>
<path d="M229.586 56.472C230.114 56.472 230.543 56.0407 230.543 55.5086C230.543 54.9765 230.114 54.5452 229.586 54.5452C229.058 54.5452 228.63 54.9765 228.63 55.5086C228.63 56.0407 229.058 56.472 229.586 56.472Z" fill="#98C8DB"/>
<path d="M235.595 56.0329C236.123 56.0329 236.552 55.6016 236.552 55.0695C236.552 54.5374 236.123 54.1061 235.595 54.1061C235.067 54.1061 234.639 54.5374 234.639 55.0695C234.639 55.6016 235.067 56.0329 235.595 56.0329Z" fill="#98C8DB"/>
<path d="M241.604 55.5916C242.132 55.5916 242.56 55.1603 242.56 54.6282C242.56 54.0961 242.132 53.6648 241.604 53.6648C241.076 53.6648 240.648 54.0961 240.648 54.6282C240.648 55.1603 241.076 55.5916 241.604 55.5916Z" fill="#98C8DB"/>
<path d="M246.606 55.1524C247.135 55.1524 247.563 54.7211 247.563 54.189C247.563 53.6569 247.135 53.2256 246.606 53.2256C246.078 53.2256 245.65 53.6569 245.65 54.189C245.65 54.7211 246.078 55.1524 246.606 55.1524Z" fill="#98C8DB"/>
<path d="M220.801 60.269C221.329 60.269 221.757 59.8377 221.757 59.3056C221.757 58.7735 221.329 58.3422 220.801 58.3422C220.273 58.3422 219.845 58.7735 219.845 59.3056C219.845 59.8377 220.273 60.269 220.801 60.269Z" fill="#98C8DB"/>
<path d="M226.808 59.8299C227.336 59.8299 227.764 59.3986 227.764 58.8665C227.764 58.3344 227.336 57.9031 226.808 57.9031C226.28 57.9031 225.852 58.3344 225.852 58.8665C225.852 59.3986 226.28 59.8299 226.808 59.8299Z" fill="#98C8DB"/>
<path d="M232.817 59.3907C233.345 59.3907 233.773 58.9593 233.773 58.4273C233.773 57.8952 233.345 57.4639 232.817 57.4639C232.289 57.4639 231.861 57.8952 231.861 58.4273C231.861 58.9593 232.289 59.3907 232.817 59.3907Z" fill="#98C8DB"/>
<path d="M232.616 53.3187C233.144 53.3187 233.572 52.8873 233.572 52.3553C233.572 51.8232 233.144 51.3918 232.616 51.3918C232.088 51.3918 231.66 51.8232 231.66 52.3553C231.66 52.8873 232.088 53.3187 232.616 53.3187Z" fill="#98C8DB"/>
<path d="M238.826 58.9494C239.354 58.9494 239.782 58.5181 239.782 57.986C239.782 57.4539 239.354 57.0226 238.826 57.0226C238.298 57.0226 237.869 57.4539 237.869 57.986C237.869 58.5181 238.298 58.9494 238.826 58.9494Z" fill="#98C8DB"/>
<path d="M244.835 58.5103C245.363 58.5103 245.791 58.0789 245.791 57.5469C245.791 57.0148 245.363 56.5835 244.835 56.5835C244.306 56.5835 243.878 57.0148 243.878 57.5469C243.878 58.0789 244.306 58.5103 244.835 58.5103Z" fill="#98C8DB"/>
<path d="M218.023 63.6267C218.551 63.6267 218.979 63.1953 218.979 62.6632C218.979 62.1312 218.551 61.6998 218.023 61.6998C217.495 61.6998 217.066 62.1312 217.066 62.6632C217.066 63.1953 217.495 63.6267 218.023 63.6267Z" fill="#98C8DB"/>
<path d="M224.032 63.1874C224.56 63.1874 224.988 62.7561 224.988 62.224C224.988 61.692 224.56 61.2606 224.032 61.2606C223.503 61.2606 223.075 61.692 223.075 62.224C223.075 62.7561 223.503 63.1874 224.032 63.1874Z" fill="#98C8DB"/>
<path d="M230.038 62.7484C230.566 62.7484 230.995 62.3171 230.995 61.785C230.995 61.2529 230.566 60.8215 230.038 60.8215C229.51 60.8215 229.082 61.2529 229.082 61.785C229.082 62.3171 229.51 62.7484 230.038 62.7484Z" fill="#98C8DB"/>
<path d="M236.047 62.3091C236.575 62.3091 237.003 61.8778 237.003 61.3457C237.003 60.8136 236.575 60.3823 236.047 60.3823C235.519 60.3823 235.091 60.8136 235.091 61.3457C235.091 61.8778 235.519 62.3091 236.047 62.3091Z" fill="#98C8DB"/>
<path d="M221.231 66.2315C221.759 66.2315 222.187 65.8002 222.187 65.2681C222.187 64.736 221.759 64.3047 221.231 64.3047C220.703 64.3047 220.275 64.736 220.275 65.2681C220.275 65.8002 220.703 66.2315 221.231 66.2315Z" fill="#98C8DB"/>
<path d="M227.238 65.7925C227.766 65.7925 228.194 65.3612 228.194 64.8291C228.194 64.2971 227.766 63.8657 227.238 63.8657C226.71 63.8657 226.282 64.2971 226.282 64.8291C226.282 65.3612 226.71 65.7925 227.238 65.7925Z" fill="#98C8DB"/>
<path d="M233.247 65.3532C233.775 65.3532 234.203 64.9219 234.203 64.3898C234.203 63.8577 233.775 63.4264 233.247 63.4264C232.719 63.4264 232.291 63.8577 232.291 64.3898C232.291 64.9219 232.719 65.3532 233.247 65.3532Z" fill="#98C8DB"/>
<path d="M239.256 64.9119C239.784 64.9119 240.212 64.4806 240.212 63.9485C240.212 63.4164 239.784 62.9851 239.256 62.9851C238.727 62.9851 238.299 63.4164 238.299 63.9485C238.299 64.4806 238.727 64.9119 239.256 64.9119Z" fill="#98C8DB"/>
<path d="M245.264 64.4726C245.793 64.4726 246.221 64.0413 246.221 63.5092C246.221 62.9771 245.793 62.5458 245.264 62.5458C244.736 62.5458 244.308 62.9771 244.308 63.5092C244.308 64.0413 244.736 64.4726 245.264 64.4726Z" fill="#98C8DB"/>
<path d="M218.457 69.652C218.985 69.652 219.413 69.2207 219.413 68.6886C219.413 68.1565 218.985 67.7252 218.457 67.7252C217.928 67.7252 217.5 68.1565 217.5 68.6886C217.5 69.2207 217.928 69.652 218.457 69.652Z" fill="#98C8DB"/>
<path d="M224.465 69.2128C224.993 69.2128 225.422 68.7814 225.422 68.2493C225.422 67.7172 224.993 67.2859 224.465 67.2859C223.937 67.2859 223.509 67.7172 223.509 68.2493C223.509 68.7814 223.937 69.2128 224.465 69.2128Z" fill="#98C8DB"/>
<path d="M230.474 68.7737C231.002 68.7737 231.43 68.3424 231.43 67.8103C231.43 67.2783 231.002 66.8469 230.474 66.8469C229.946 66.8469 229.518 67.2783 229.518 67.8103C229.518 68.3424 229.946 68.7737 230.474 68.7737Z" fill="#98C8DB"/>
<path d="M236.481 68.3326C237.009 68.3326 237.437 67.9013 237.437 67.3692C237.437 66.8371 237.009 66.4058 236.481 66.4058C235.953 66.4058 235.525 66.8371 235.525 67.3692C235.525 67.9013 235.953 68.3326 236.481 68.3326Z" fill="#98C8DB"/>
<path d="M242.49 67.8931C243.018 67.8931 243.446 67.4618 243.446 66.9297C243.446 66.3976 243.018 65.9663 242.49 65.9663C241.962 65.9663 241.534 66.3976 241.534 66.9297C241.534 67.4618 241.962 67.8931 242.49 67.8931Z" fill="#98C8DB"/>
<path d="M248.499 67.4541C249.027 67.4541 249.455 67.0228 249.455 66.4907C249.455 65.9587 249.027 65.5273 248.499 65.5273C247.971 65.5273 247.543 65.9587 247.543 66.4907C247.543 67.0228 247.971 67.4541 248.499 67.4541Z" fill="#98C8DB"/>
<path d="M221.691 72.6334C222.219 72.6334 222.647 72.2021 222.647 71.67C222.647 71.138 222.219 70.7067 221.691 70.7067C221.163 70.7067 220.735 71.138 220.735 71.67C220.735 72.2021 221.163 72.6334 221.691 72.6334Z" fill="#98C8DB"/>
<path d="M227.7 72.1943C228.228 72.1943 228.656 71.763 228.656 71.2309C228.656 70.6988 228.228 70.2675 227.7 70.2675C227.172 70.2675 226.744 70.6988 226.744 71.2309C226.744 71.763 227.172 72.1943 227.7 72.1943Z" fill="#98C8DB"/>
<path d="M233.709 71.755C234.237 71.755 234.665 71.3236 234.665 70.7916C234.665 70.2595 234.237 69.8281 233.709 69.8281C233.181 69.8281 232.753 70.2595 232.753 70.7916C232.753 71.3236 233.181 71.755 233.709 71.755Z" fill="#98C8DB"/>
<path d="M239.718 71.3137C240.246 71.3137 240.674 70.8824 240.674 70.3503C240.674 69.8183 240.246 69.387 239.718 69.387C239.189 69.387 238.761 69.8183 238.761 70.3503C238.761 70.8824 239.189 71.3137 239.718 71.3137Z" fill="#98C8DB"/>
<path d="M245.724 70.8746C246.253 70.8746 246.681 70.4432 246.681 69.9112C246.681 69.3791 246.253 68.9478 245.724 68.9478C245.196 68.9478 244.768 69.3791 244.768 69.9112C244.768 70.4432 245.196 70.8746 245.724 70.8746Z" fill="#98C8DB"/>
<path d="M224.928 75.6146C225.456 75.6146 225.884 75.1832 225.884 74.6512C225.884 74.1191 225.456 73.6877 224.928 73.6877C224.4 73.6877 223.971 74.1191 223.971 74.6512C223.971 75.1832 224.4 75.6146 224.928 75.6146Z" fill="#98C8DB"/>
<path d="M236.943 74.7344C237.471 74.7344 237.899 74.3031 237.899 73.771C237.899 73.2389 237.471 72.8076 236.943 72.8076C236.415 72.8076 235.987 73.2389 235.987 73.771C235.987 74.3031 236.415 74.7344 236.943 74.7344Z" fill="#98C8DB"/>
<path d="M242.952 74.2951C243.48 74.2951 243.908 73.8638 243.908 73.3317C243.908 72.7996 243.48 72.3683 242.952 72.3683C242.424 72.3683 241.996 72.7996 241.996 73.3317C241.996 73.8638 242.424 74.2951 242.952 74.2951Z" fill="#98C8DB"/>
<path d="M248.959 73.8558C249.487 73.8558 249.915 73.4245 249.915 72.8925C249.915 72.3604 249.487 71.9291 248.959 71.9291C248.431 71.9291 248.003 72.3604 248.003 72.8925C248.003 73.4245 248.431 73.8558 248.959 73.8558Z" fill="#98C8DB"/>
<path d="M254.968 73.4165C255.496 73.4165 255.924 72.9852 255.924 72.4531C255.924 71.9211 255.496 71.4897 254.968 71.4897C254.439 71.4897 254.011 71.9211 254.011 72.4531C254.011 72.9852 254.439 73.4165 254.968 73.4165Z" fill="#98C8DB"/>
<path d="M240.178 77.7156C240.706 77.7156 241.134 77.2843 241.134 76.7522C241.134 76.2201 240.706 75.7888 240.178 75.7888C239.65 75.7888 239.221 76.2201 239.221 76.7522C239.221 77.2843 239.65 77.7156 240.178 77.7156Z" fill="#98C8DB"/>
<path d="M252.196 76.8373C252.724 76.8373 253.152 76.4059 253.152 75.8738C253.152 75.3417 252.724 74.9104 252.196 74.9104C251.667 74.9104 251.239 75.3417 251.239 75.8738C251.239 76.4059 251.667 76.8373 252.196 76.8373Z" fill="#98C8DB"/>
<path d="M237.373 80.7049C237.901 80.7049 238.329 80.2736 238.329 79.7415C238.329 79.2094 237.901 78.7781 237.373 78.7781C236.845 78.7781 236.417 79.2094 236.417 79.7415C236.417 80.2736 236.845 80.7049 237.373 80.7049Z" fill="#98C8DB"/>
<path d="M255.43 79.8184C255.958 79.8184 256.386 79.3871 256.386 78.855C256.386 78.3229 255.958 77.8916 255.43 77.8916C254.902 77.8916 254.474 78.3229 254.474 78.855C254.474 79.3871 254.902 79.8184 255.43 79.8184Z" fill="#98C8DB"/>
<path d="M261.642 79.3631C262.17 79.3631 262.598 78.9318 262.598 78.3997C262.598 77.8676 262.17 77.4363 261.642 77.4363C261.114 77.4363 260.685 77.8676 260.685 78.3997C260.685 78.9318 261.114 79.3631 261.642 79.3631Z" fill="#98C8DB"/>
<path d="M310.789 71.5303C308.129 64.5051 300.979 59.4735 292.576 59.4735C290.05 59.4685 287.545 59.9337 285.187 60.8458C284.182 61.2384 283.087 60.5219 283.087 59.4978V59.4735C283.092 57.305 282.682 55.1557 281.882 53.1426C279.146 46.2611 272.07 41.353 263.771 41.353C255.472 41.353 248.398 46.2571 245.66 53.1426C245.596 53.2984 245.536 53.4583 245.477 53.6182C245.244 53.4543 245.007 53.2964 244.766 53.1426C241.516 51.1131 237.768 50.0378 233.945 50.0378C230.121 50.0378 226.373 51.1131 223.123 53.1426C217.99 56.4012 214.619 61.9104 214.619 68.1604V68.1867C214.619 69.0388 213.559 69.5164 212.86 68.97C209.002 65.9543 203.819 64.1125 198.138 64.1125C190.769 64.1125 184.264 67.2071 180.364 71.933" stroke="#98C8DB" stroke-width="5" stroke-linejoin="round"/>
<path d="M96.6319 294.625V217.055" stroke="#59221D" stroke-width="5" stroke-miterlimit="10"/>
<path d="M62.0654 211.843C65.4606 208.925 71.2123 207.006 77.7355 207.006C88.1721 207.006 96.6319 211.918 96.6319 217.976" stroke="#ED1A58" stroke-width="5" stroke-miterlimit="10" stroke-linecap="round"/>
<path d="M65.782 209.597V212.384" stroke="#ED1A58" stroke-width="5" stroke-miterlimit="10" stroke-linecap="round"/>
<path d="M68.7351 208.48V211.736" stroke="#ED1A58" stroke-width="5" stroke-miterlimit="10" stroke-linecap="round"/>
<path d="M72.1123 207.642V212.169" stroke="#ED1A58" stroke-width="5" stroke-miterlimit="10" stroke-linecap="round"/>
<path d="M75.5557 207.065V213.248" stroke="#ED1A58" stroke-width="5" stroke-miterlimit="10" stroke-linecap="round"/>
<path d="M79.1335 207.065V214.329" stroke="#ED1A58" stroke-width="5" stroke-miterlimit="10" stroke-linecap="round"/>
<path d="M82.7156 207.425V214.114" stroke="#ED1A58" stroke-width="5" stroke-miterlimit="10" stroke-linecap="round"/>
<path d="M85.5081 208.032V213.681" stroke="#ED1A58" stroke-width="5" stroke-miterlimit="10" stroke-linecap="round"/>
<path d="M88.4795 209.038V213.248" stroke="#ED1A58" stroke-width="5" stroke-miterlimit="10" stroke-linecap="round"/>
<path d="M91.0912 210.216V212.169" stroke="#ED1A58" stroke-width="5" stroke-miterlimit="10" stroke-linecap="round"/>
<path d="M96.6018 217.956C101.825 215.43 108.82 215.355 115.438 218.294C122.056 221.232 126.72 226.489 128.392 232.075" stroke="#ED1A58" stroke-width="5" stroke-miterlimit="10" stroke-linecap="round"/>
<path d="M99.6575 216.812V220.427" stroke="#ED1A58" stroke-width="5" stroke-miterlimit="10" stroke-linecap="round"/>
<path d="M102.239 216.284V220.919" stroke="#ED1A58" stroke-width="5" stroke-miterlimit="10" stroke-linecap="round"/>
<path d="M104.995 216.073V221.736" stroke="#ED1A58" stroke-width="5" stroke-miterlimit="10" stroke-linecap="round"/>
<path d="M108.38 216.284V222.882" stroke="#ED1A58" stroke-width="5" stroke-miterlimit="10" stroke-linecap="round"/>
<path d="M111.584 216.926V224.115" stroke="#ED1A58" stroke-width="5" stroke-miterlimit="10" stroke-linecap="round"/>
<path d="M114.713 217.984V225.254" stroke="#ED1A58" stroke-width="5" stroke-miterlimit="10" stroke-linecap="round"/>
<path d="M118.142 219.686V226.045" stroke="#ED1A58" stroke-width="5" stroke-miterlimit="10" stroke-linecap="round"/>
<path d="M121.3 221.88V227.296" stroke="#ED1A58" stroke-width="5" stroke-miterlimit="10" stroke-linecap="round"/>
<path d="M124.187 224.631V228.764" stroke="#ED1A58" stroke-width="5" stroke-miterlimit="10" stroke-linecap="round"/>
<path d="M124.155 200.677C121.546 199.509 118.722 198.908 115.868 198.914C105.22 198.914 96.5997 207.053 96.5997 217.092" stroke="#ED1A58" stroke-width="5" stroke-miterlimit="10" stroke-linecap="round"/>
<path d="M97.3169 212.169L98.8779 213.742" stroke="#ED1A58" stroke-width="5" stroke-miterlimit="10" stroke-linecap="round"/>
<path d="M98.1748 210.008L100.857 212.71" stroke="#ED1A58" stroke-width="5" stroke-miterlimit="10" stroke-linecap="round"/>
<path d="M99.4626 207.846L102.998 211.408" stroke="#ED1A58" stroke-width="5" stroke-miterlimit="10" stroke-linecap="round"/>
<path d="M100.963 205.684L104.877 209.627" stroke="#ED1A58" stroke-width="5" stroke-miterlimit="10" stroke-linecap="round"/>
<path d="M102.894 203.956L106.916 208.008" stroke="#ED1A58" stroke-width="5" stroke-miterlimit="10" stroke-linecap="round"/>
<path d="M104.824 202.228L108.579 206.008" stroke="#ED1A58" stroke-width="5" stroke-miterlimit="10" stroke-linecap="round"/>
<path d="M107.185 201.147L110.594 204.581" stroke="#ED1A58" stroke-width="5" stroke-miterlimit="10" stroke-linecap="round"/>
<path d="M109.544 200.066L112.7 203.246" stroke="#ED1A58" stroke-width="5" stroke-miterlimit="10" stroke-linecap="round"/>
<path d="M112.547 199.418L115.229 202.12" stroke="#ED1A58" stroke-width="5" stroke-miterlimit="10" stroke-linecap="round"/>
<path d="M115.336 199.202L118.018 201.904" stroke="#ED1A58" stroke-width="5" stroke-miterlimit="10" stroke-linecap="round"/>
<path d="M118.339 199.202L121.021 201.904" stroke="#ED1A58" stroke-width="5" stroke-miterlimit="10" stroke-linecap="round"/>
<path d="M163.037 204.737V294.625" stroke="#59221D" stroke-width="5" stroke-miterlimit="10"/>
<path d="M163.083 203.988C158.842 200.479 152.528 198.929 145.993 200.299C140.834 201.39 136.498 204.11 133.641 207.64" stroke="#ED1A58" stroke-width="5" stroke-miterlimit="10" stroke-linecap="round"/>
<path d="M160.536 202.252L159.852 205.682" stroke="#ED1A58" stroke-width="5" stroke-miterlimit="10" stroke-linecap="round"/>
<path d="M158.302 201.199L157.428 205.6" stroke="#ED1A58" stroke-width="5" stroke-miterlimit="10" stroke-linecap="round"/>
<path d="M155.851 200.416L154.782 205.79" stroke="#ED1A58" stroke-width="5" stroke-miterlimit="10" stroke-linecap="round"/>
<path d="M152.751 199.892L151.505 206.158" stroke="#ED1A58" stroke-width="5" stroke-miterlimit="10" stroke-linecap="round"/>
<path d="M149.733 199.821L148.377 206.646" stroke="#ED1A58" stroke-width="5" stroke-miterlimit="10" stroke-linecap="round"/>
<path d="M146.706 200.161L145.334 207.061" stroke="#ED1A58" stroke-width="5" stroke-miterlimit="10" stroke-linecap="round"/>
<path d="M143.285 201.045L142.083 207.083" stroke="#ED1A58" stroke-width="5" stroke-miterlimit="10" stroke-linecap="round"/>
<path d="M140.014 202.456L138.991 207.597" stroke="#ED1A58" stroke-width="5" stroke-miterlimit="10" stroke-linecap="round"/>
<path d="M136.886 204.452L136.249 207.654" stroke="#ED1A58" stroke-width="5" stroke-miterlimit="10" stroke-linecap="round"/>
<path d="M135.904 182.344C138.731 181.239 141.774 180.809 144.793 181.089C155.963 182.122 164.154 192.462 163.087 204.185" stroke="#ED1A58" stroke-width="5" stroke-miterlimit="10" stroke-linecap="round"/>
<path d="M162.858 198.366L161.052 200.052" stroke="#ED1A58" stroke-width="5" stroke-miterlimit="10" stroke-linecap="round"/>
<path d="M162.187 195.759L159.085 198.655" stroke="#ED1A58" stroke-width="5" stroke-miterlimit="10" stroke-linecap="round"/>
<path d="M161.078 193.156L156.988 196.971" stroke="#ED1A58" stroke-width="5" stroke-miterlimit="10" stroke-linecap="round"/>
<path d="M159.732 190.487L155.206 194.711" stroke="#ED1A58" stroke-width="5" stroke-miterlimit="10" stroke-linecap="round"/>
<path d="M158.044 188.125L153.392 192.466" stroke="#ED1A58" stroke-width="5" stroke-miterlimit="10" stroke-linecap="round"/>
<path d="M156.045 186.074L151.704 190.126" stroke="#ED1A58" stroke-width="5" stroke-miterlimit="10" stroke-linecap="round"/>
<path d="M153.707 184.332L149.763 188.011" stroke="#ED1A58" stroke-width="5" stroke-miterlimit="10" stroke-linecap="round"/>
<path d="M151.132 182.865L147.481 186.271" stroke="#ED1A58" stroke-width="5" stroke-miterlimit="10" stroke-linecap="round"/>
<path d="M148.498 181.984L145.394 184.878" stroke="#ED1A58" stroke-width="5" stroke-miterlimit="10" stroke-linecap="round"/>
<path d="M145.57 181.245L142.467 184.141" stroke="#ED1A58" stroke-width="5" stroke-miterlimit="10" stroke-linecap="round"/>
<path d="M142.228 181.193L139.124 184.089" stroke="#ED1A58" stroke-width="5" stroke-miterlimit="10" stroke-linecap="round"/>
<path d="M193.246 196.409C191.843 195.042 190.228 193.916 188.464 193.075C179.131 188.622 167.79 193.033 163.135 202.932" stroke="#ED1A58" stroke-width="5" stroke-miterlimit="10" stroke-linecap="round"/>
<path d="M166.046 198.376L166.685 200.582" stroke="#ED1A58" stroke-width="5" stroke-miterlimit="10" stroke-linecap="round"/>
<path d="M167.8 196.605L168.901 200.392" stroke="#ED1A58" stroke-width="5" stroke-miterlimit="10" stroke-linecap="round"/>
<path d="M169.803 195.13L171.193 199.916" stroke="#ED1A58" stroke-width="5" stroke-miterlimit="10" stroke-linecap="round"/>
<path d="M172.123 193.628L173.666 198.947" stroke="#ED1A58" stroke-width="5" stroke-miterlimit="10" stroke-linecap="round"/>
<path d="M174.269 192.648L175.918 198.327" stroke="#ED1A58" stroke-width="5" stroke-miterlimit="10" stroke-linecap="round"/>
<path d="M177.114 191.836L178.592 196.929" stroke="#ED1A58" stroke-width="5" stroke-miterlimit="10" stroke-linecap="round"/>
<path d="M179.784 191.545L181.122 196.152" stroke="#ED1A58" stroke-width="5" stroke-miterlimit="10" stroke-linecap="round"/>
<path d="M182.355 191.468L183.759 196.299" stroke="#ED1A58" stroke-width="5" stroke-miterlimit="10" stroke-linecap="round"/>
<path d="M185.29 192.086L186.5 196.249" stroke="#ED1A58" stroke-width="5" stroke-miterlimit="10" stroke-linecap="round"/>
<path d="M187.777 192.832L188.706 196.038" stroke="#ED1A58" stroke-width="5" stroke-miterlimit="10" stroke-linecap="round"/>
<path d="M153.888 291.996C150.623 295.37 141.181 294.909 141.181 294.909L136.747 294.809C129.36 294.809 123.331 289.252 123.331 289.252C125.866 288.739 128.484 288.816 130.985 289.478C127.468 284.435 126.688 278.654 126.688 278.654C130.086 280.45 133.018 283.026 135.246 286.173C135.066 279.921 136.735 275.379 136.735 275.379C139.867 279.539 141.187 283.542 141.649 286.829C146.27 282.376 152.16 280.362 152.16 280.362C152.203 284.076 150.784 287.656 148.212 290.318C149.807 290.298 151.688 290.753 153.888 291.996Z" fill="#ED1A58"/>
<path d="M70.6336 294.666C70.9983 292.537 71.8763 290.53 73.1905 288.823C74.5047 287.115 76.2148 285.759 78.1708 284.873C80.1268 283.987 82.2688 283.598 84.4088 283.741C86.5487 283.884 88.6212 284.553 90.4442 285.692L95.8684 288.997C97.5037 289.997 99.3794 290.529 101.293 290.533C103.235 290.535 105.137 289.98 106.777 288.932C108.36 287.92 110.196 287.384 112.071 287.386C114.768 287.391 117.353 288.474 119.259 290.397C122.367 293.518 126.491 294.755 131.809 292.539C132.78 292.138 133.868 292.137 134.841 292.534C135.813 292.932 136.593 293.697 137.012 294.666H70.6336Z" fill="#ED1A58"/>
</g>
</svg>
